G04*
G04 #@! TF.GenerationSoftware,Altium Limited,Altium Designer,24.10.1 (45)*
G04*
G04 Layer_Color=65535*
%FSLAX44Y44*%
%MOMM*%
G71*
G04*
G04 #@! TF.SameCoordinates,6C15008D-1AD3-4549-9602-DC6CD9F93784*
G04*
G04*
G04 #@! TF.FilePolarity,Positive*
G04*
G01*
G75*
%ADD10C,0.2500*%
%ADD11C,0.2000*%
%ADD12C,0.1500*%
%ADD13C,0.1000*%
%ADD14C,0.2540*%
D10*
X68818Y381762D02*
G03*
X68818Y381762I-1250J0D01*
G01*
X154372Y558908D02*
G03*
X154372Y558908I-1250J0D01*
G01*
D11*
X11068Y625562D02*
X61068D01*
Y366562D02*
Y625562D01*
X11068Y366562D02*
X61068D01*
X11068D02*
Y625562D01*
D12*
X89154Y417607D02*
Y421607D01*
X89154Y455962D02*
Y459962D01*
X84654Y388659D02*
Y392659D01*
X84654Y369322D02*
Y373322D01*
D13*
X66564Y613722D02*
X66554Y608724D01*
X69053Y608719D01*
X69888Y609551D01*
X69895Y612883D01*
X69063Y613717D01*
X66564Y613722D01*
X74052Y608709D02*
X72386Y608713D01*
X71554Y609547D01*
X71557Y611213D01*
X72392Y612045D01*
X74058Y612041D01*
X74890Y611207D01*
X74888Y610374D01*
X71556Y610380D01*
X76551Y608704D02*
X79050Y608699D01*
X79885Y609531D01*
X79053Y610365D01*
X77387Y610369D01*
X76556Y611203D01*
X77390Y612035D01*
X79890Y612030D01*
X81549Y608694D02*
X83215Y608691D01*
X82382Y608693D01*
X82389Y612025D01*
X81556Y612026D01*
X87377Y607016D02*
X88210Y607015D01*
X89045Y607846D01*
X89053Y612012D01*
X86554Y612017D01*
X85719Y611185D01*
X85716Y609519D01*
X86547Y608684D01*
X89047Y608679D01*
X90713Y608676D02*
X90719Y612008D01*
X93219Y612003D01*
X94050Y611169D01*
X94045Y608669D01*
X98210Y608661D02*
X96544Y608664D01*
X95713Y609499D01*
X95716Y611165D01*
X96551Y611997D01*
X98217Y611993D01*
X99048Y611159D01*
X99047Y610326D01*
X95714Y610332D01*
X104052Y613648D02*
X104042Y608649D01*
X101543Y608654D01*
X100711Y609489D01*
X100715Y611155D01*
X101549Y611987D01*
X104048Y611982D01*
X110716Y613634D02*
X110706Y608636D01*
X113205Y608631D01*
X114040Y609463D01*
X114042Y610296D01*
X114043Y611129D01*
X113212Y611963D01*
X110713Y611968D01*
X115711Y611959D02*
X115706Y609459D01*
X116538Y608625D01*
X119037Y608620D01*
X119035Y607786D01*
X118200Y606955D01*
X117367Y606957D01*
X119037Y608620D02*
X119043Y611952D01*
X129044Y613598D02*
X127377Y613601D01*
X128210Y613600D01*
X128202Y609434D01*
X127367Y608603D01*
X126534Y608605D01*
X125703Y609439D01*
X131533Y608595D02*
X133199Y608591D01*
X134033Y609423D01*
X134037Y611089D01*
X133205Y611924D01*
X131539Y611927D01*
X130705Y611096D01*
X130701Y609429D01*
X131533Y608595D01*
X135698Y608586D02*
X138197Y608581D01*
X139032Y609413D01*
X138201Y610247D01*
X136534Y610251D01*
X135703Y611086D01*
X136538Y611917D01*
X139037Y611912D01*
X140706Y613575D02*
X140696Y608576D01*
X140701Y611076D01*
X141536Y611907D01*
X143202Y611904D01*
X144033Y611069D01*
X144029Y608570D01*
X145701Y611899D02*
X145696Y609399D01*
X146528Y608565D01*
X149027Y608560D01*
X149034Y611892D01*
X151533Y611887D02*
X153199Y611884D01*
X154030Y611049D01*
X154025Y608550D01*
X151526Y608555D01*
X150695Y609390D01*
X151529Y610221D01*
X154029Y610216D01*
X164032Y613528D02*
X160700Y613535D01*
X160690Y608537D01*
X164022Y608530D01*
X160695Y611036D02*
X162361Y611032D01*
X165688Y608527D02*
X168187Y608522D01*
X169022Y609353D01*
X168191Y610188D01*
X166525Y610191D01*
X165693Y611026D01*
X166528Y611857D01*
X169027Y611852D01*
X171528Y612680D02*
X171526Y611847D01*
X170693Y611849D01*
X172359Y611846D01*
X171526Y611847D01*
X171521Y609348D01*
X172353Y608513D01*
X177351Y608503D02*
X175685Y608507D01*
X174853Y609342D01*
X174857Y611008D01*
X175692Y611839D01*
X177358Y611836D01*
X178189Y611001D01*
X178187Y610168D01*
X174855Y610174D01*
X179850Y608498D02*
X182349Y608493D01*
X183184Y609325D01*
X182353Y610160D01*
X180686Y610163D01*
X179855Y610998D01*
X180690Y611829D01*
X183189Y611824D01*
X66544Y603658D02*
X69876Y603652D01*
X68210Y603655D01*
X68200Y598657D01*
X71532Y598650D02*
X71542Y603648D01*
X74042Y603643D01*
X74873Y602809D01*
X74869Y601143D01*
X74035Y600311D01*
X71536Y600316D01*
X76531Y598640D02*
X76541Y603638D01*
X78203Y601969D01*
X79873Y603632D01*
X79863Y598633D01*
X89860Y598614D02*
X86527Y598620D01*
X89866Y601946D01*
X89868Y602779D01*
X89037Y603614D01*
X87370Y603617D01*
X86536Y602785D01*
X91526Y598610D02*
X91527Y599443D01*
X92360Y599442D01*
X92359Y598609D01*
X91526Y598610D01*
X95699Y602767D02*
X96534Y603599D01*
X98200Y603595D01*
X99032Y602761D01*
X99025Y599428D01*
X98190Y598597D01*
X96524Y598600D01*
X95693Y599435D01*
X95699Y602767D01*
X105688Y598582D02*
X105698Y603580D01*
X107360Y601911D01*
X109030Y603574D01*
X109020Y598575D01*
X111519Y598570D02*
X113185Y598567D01*
X114020Y599398D01*
X114023Y601065D01*
X113192Y601899D01*
X111526Y601903D01*
X110691Y601071D01*
X110688Y599405D01*
X111519Y598570D01*
X119027Y603554D02*
X119017Y598555D01*
X116517Y598560D01*
X115686Y599395D01*
X115689Y601061D01*
X116524Y601893D01*
X119023Y601888D01*
X120689Y601884D02*
X120684Y599385D01*
X121516Y598550D01*
X124015Y598545D01*
X124022Y601878D01*
X125681Y598542D02*
X127347Y598539D01*
X126514Y598540D01*
X126524Y603539D01*
X125691Y603540D01*
X132346Y598529D02*
X130680Y598532D01*
X129848Y599367D01*
X129852Y601033D01*
X130686Y601865D01*
X132352Y601861D01*
X133184Y601026D01*
X133182Y600193D01*
X129850Y600200D01*
D14*
X49276Y644903D02*
X44198D01*
X46737D01*
Y632208D01*
X44198Y629669D01*
X41659D01*
X39119Y632208D01*
X54354Y629669D02*
X59433D01*
X56894D01*
Y644903D01*
X54354Y642364D01*
X190868Y498680D02*
X195946D01*
X193407D01*
Y483445D01*
X190868D01*
X195946D01*
X213720Y496141D02*
X211181Y498680D01*
X206103D01*
X203563Y496141D01*
Y485984D01*
X206103Y483445D01*
X211181D01*
X213720Y485984D01*
X218798Y483445D02*
X223877D01*
X221338D01*
Y498680D01*
X218798Y496141D01*
X104652Y411990D02*
Y427225D01*
X112270D01*
X114809Y424686D01*
Y419607D01*
X112270Y417068D01*
X104652D01*
X109730D02*
X114809Y411990D01*
X130044D02*
X119887D01*
X130044Y422147D01*
Y424686D01*
X127505Y427225D01*
X122426D01*
X119887Y424686D01*
X107191Y450094D02*
Y465329D01*
X114809D01*
X117348Y462790D01*
Y457712D01*
X114809Y455173D01*
X107191D01*
X112270D02*
X117348Y450094D01*
X122426D02*
X127505D01*
X124965D01*
Y465329D01*
X122426Y462790D01*
X114809Y376400D02*
X112270Y378939D01*
X107191D01*
X104652Y376400D01*
Y366243D01*
X107191Y363704D01*
X112270D01*
X114809Y366243D01*
X130044Y363704D02*
X119887D01*
X130044Y373861D01*
Y376400D01*
X127505Y378939D01*
X122426D01*
X119887Y376400D01*
X114648Y395737D02*
X112109Y398277D01*
X107030D01*
X104491Y395737D01*
Y385581D01*
X107030Y383042D01*
X112109D01*
X114648Y385581D01*
X119726Y383042D02*
X124805D01*
X122266D01*
Y398277D01*
X119726Y395737D01*
M02*
