G04*
G04 #@! TF.GenerationSoftware,Altium Limited,Altium Designer,24.10.1 (45)*
G04*
G04 Layer_Color=255*
%FSLAX44Y44*%
%MOMM*%
G71*
G04*
G04 #@! TF.SameCoordinates,6C15008D-1AD3-4549-9602-DC6CD9F93784*
G04*
G04*
G04 #@! TF.FilePolarity,Positive*
G04*
G01*
G75*
%ADD22R,0.8500X0.3000*%
%ADD23R,0.3000X0.8500*%
%ADD24R,3.7000X3.7000*%
G04:AMPARAMS|DCode=25|XSize=0.55mm|YSize=0.5mm|CornerRadius=0.0625mm|HoleSize=0mm|Usage=FLASHONLY|Rotation=90.000|XOffset=0mm|YOffset=0mm|HoleType=Round|Shape=RoundedRectangle|*
%AMROUNDEDRECTD25*
21,1,0.5500,0.3750,0,0,90.0*
21,1,0.4250,0.5000,0,0,90.0*
1,1,0.1250,0.1875,0.2125*
1,1,0.1250,0.1875,-0.2125*
1,1,0.1250,-0.1875,-0.2125*
1,1,0.1250,-0.1875,0.2125*
%
%ADD25ROUNDEDRECTD25*%
%ADD27C,1.5500*%
%ADD28R,1.5500X1.5500*%
D22*
X157372Y551408D02*
D03*
Y546408D02*
D03*
Y541408D02*
D03*
Y536408D02*
D03*
Y531408D02*
D03*
Y526408D02*
D03*
Y521408D02*
D03*
Y516408D02*
D03*
X207372D02*
D03*
Y521408D02*
D03*
Y526408D02*
D03*
Y531408D02*
D03*
Y536408D02*
D03*
Y541408D02*
D03*
Y546408D02*
D03*
Y551408D02*
D03*
D23*
X164872Y508908D02*
D03*
X169872D02*
D03*
X174872D02*
D03*
X179872D02*
D03*
X184872D02*
D03*
X189872D02*
D03*
X194872D02*
D03*
X199872D02*
D03*
Y558908D02*
D03*
X194872D02*
D03*
X189872D02*
D03*
X184872D02*
D03*
X179872D02*
D03*
X174872D02*
D03*
X169872D02*
D03*
X164872D02*
D03*
D24*
X182372Y533908D02*
D03*
D25*
X84654Y419607D02*
D03*
X93654D02*
D03*
X84654Y457962D02*
D03*
X93654D02*
D03*
X80153Y390659D02*
D03*
X89154D02*
D03*
X80154Y371322D02*
D03*
X89154D02*
D03*
D27*
X48768Y534162D02*
D03*
X23368D02*
D03*
Y559562D02*
D03*
X48768D02*
D03*
X23368Y584962D02*
D03*
X48768D02*
D03*
X23368Y610362D02*
D03*
X48768D02*
D03*
X23368Y381762D02*
D03*
Y407162D02*
D03*
X48768D02*
D03*
X23368Y432562D02*
D03*
X48768D02*
D03*
X23368Y457962D02*
D03*
X48768D02*
D03*
Y508762D02*
D03*
Y483362D02*
D03*
X23368D02*
D03*
Y508762D02*
D03*
D28*
X48768Y381762D02*
D03*
M02*
