G04*
G04 #@! TF.GenerationSoftware,Altium Limited,Altium Designer,24.10.1 (45)*
G04*
G04 Layer_Color=128*
%FSLAX44Y44*%
%MOMM*%
G71*
G04*
G04 #@! TF.SameCoordinates,6C15008D-1AD3-4549-9602-DC6CD9F93784*
G04*
G04*
G04 #@! TF.FilePolarity,Positive*
G04*
G01*
G75*
%ADD31C,0.1270*%
D31*
X43668Y534162D02*
X53868D01*
X48768Y529062D02*
Y539262D01*
X18268Y534162D02*
X28468D01*
X23368Y529062D02*
Y539262D01*
X18268Y559562D02*
X28468D01*
X23368Y554462D02*
Y564662D01*
X43668Y559562D02*
X53868D01*
X48768Y554462D02*
Y564662D01*
X18268Y584962D02*
X28468D01*
X23368Y579862D02*
Y590062D01*
X43668Y584962D02*
X53868D01*
X48768Y579862D02*
Y590062D01*
X18268Y610362D02*
X28468D01*
X23368Y605262D02*
Y615462D01*
X43668Y610362D02*
X53868D01*
X48768Y605262D02*
Y615462D01*
X18268Y381762D02*
X28468D01*
X23368Y376662D02*
Y386862D01*
X43668Y381762D02*
X53868D01*
X48768Y376662D02*
Y386862D01*
X18268Y407162D02*
X28468D01*
X23368Y402062D02*
Y412262D01*
X43668Y407162D02*
X53868D01*
X48768Y402062D02*
Y412262D01*
X18268Y432562D02*
X28468D01*
X23368Y427462D02*
Y437662D01*
X43668Y432562D02*
X53868D01*
X48768Y427462D02*
Y437662D01*
X18268Y457962D02*
X28468D01*
X23368Y452862D02*
Y463062D01*
X43668Y457962D02*
X53868D01*
X48768Y452862D02*
Y463062D01*
X43668Y508762D02*
X53868D01*
X48768Y503662D02*
Y513862D01*
X43668Y483362D02*
X53868D01*
X48768Y478262D02*
Y488462D01*
X18268Y483362D02*
X28468D01*
X23368Y478262D02*
Y488462D01*
X18268Y508762D02*
X28468D01*
X23368Y503662D02*
Y513862D01*
X79904Y518668D02*
X81404D01*
X80654Y517918D02*
Y519418D01*
X86654Y553908D02*
X88154D01*
X87404Y553158D02*
Y554658D01*
X101104Y372592D02*
X102604D01*
X101854Y371842D02*
Y373341D01*
X123706Y488188D02*
X125206D01*
X124456Y487438D02*
Y488938D01*
X77250Y551408D02*
X78750D01*
X78000Y550658D02*
Y552158D01*
X79768Y436118D02*
X81268D01*
X80518Y435368D02*
Y436868D01*
M02*
