G04*
G04 #@! TF.GenerationSoftware,Altium Limited,Altium Designer,24.10.1 (45)*
G04*
G04 Layer_Color=8388736*
%FSLAX44Y44*%
%MOMM*%
G71*
G04*
G04 #@! TF.SameCoordinates,6C15008D-1AD3-4549-9602-DC6CD9F93784*
G04*
G04*
G04 #@! TF.FilePolarity,Negative*
G04*
G01*
G75*
%ADD15R,1.3580X0.8080*%
%ADD16R,0.8080X1.3580*%
%ADD17R,4.2080X4.2080*%
G04:AMPARAMS|DCode=18|XSize=1.058mm|YSize=1.008mm|CornerRadius=0.3165mm|HoleSize=0mm|Usage=FLASHONLY|Rotation=90.000|XOffset=0mm|YOffset=0mm|HoleType=Round|Shape=RoundedRectangle|*
%AMROUNDEDRECTD18*
21,1,1.0580,0.3750,0,0,90.0*
21,1,0.4250,1.0080,0,0,90.0*
1,1,0.6330,0.1875,0.2125*
1,1,0.6330,0.1875,-0.2125*
1,1,0.6330,-0.1875,-0.2125*
1,1,0.6330,-0.1875,0.2125*
%
%ADD18ROUNDEDRECTD18*%
%ADD19C,2.0580*%
%ADD20R,2.0580X2.0580*%
%ADD21C,0.7580*%
D15*
X157372Y551408D02*
D03*
Y546408D02*
D03*
Y541408D02*
D03*
Y536408D02*
D03*
Y531408D02*
D03*
Y526408D02*
D03*
Y521408D02*
D03*
Y516408D02*
D03*
X207372D02*
D03*
Y521408D02*
D03*
Y526408D02*
D03*
Y531408D02*
D03*
Y536408D02*
D03*
Y541408D02*
D03*
Y546408D02*
D03*
Y551408D02*
D03*
D16*
X164872Y508908D02*
D03*
X169872D02*
D03*
X174872D02*
D03*
X179872D02*
D03*
X184872D02*
D03*
X189872D02*
D03*
X194872D02*
D03*
X199872D02*
D03*
Y558908D02*
D03*
X194872D02*
D03*
X189872D02*
D03*
X184872D02*
D03*
X179872D02*
D03*
X174872D02*
D03*
X169872D02*
D03*
X164872D02*
D03*
D17*
X182372Y533908D02*
D03*
D18*
X84654Y419607D02*
D03*
X93654D02*
D03*
X84654Y457962D02*
D03*
X93654D02*
D03*
X80153Y390659D02*
D03*
X89154D02*
D03*
X80154Y371322D02*
D03*
X89154D02*
D03*
D19*
X48768Y534162D02*
D03*
X23368D02*
D03*
Y559562D02*
D03*
X48768D02*
D03*
X23368Y584962D02*
D03*
X48768D02*
D03*
X23368Y610362D02*
D03*
X48768D02*
D03*
X23368Y381762D02*
D03*
Y407162D02*
D03*
X48768D02*
D03*
X23368Y432562D02*
D03*
X48768D02*
D03*
X23368Y457962D02*
D03*
X48768D02*
D03*
Y508762D02*
D03*
Y483362D02*
D03*
X23368D02*
D03*
Y508762D02*
D03*
D20*
X48768Y381762D02*
D03*
D21*
X80654Y518668D02*
D03*
X87404Y553908D02*
D03*
X101854Y372592D02*
D03*
X124456Y488188D02*
D03*
X78000Y551408D02*
D03*
X80518Y436118D02*
D03*
M02*
