G04*
G04 #@! TF.GenerationSoftware,Altium Limited,Altium Designer,24.10.1 (45)*
G04*
G04 Layer_Physical_Order=1*
G04 Layer_Color=255*
%FSLAX44Y44*%
%MOMM*%
G71*
G04*
G04 #@! TF.SameCoordinates,6C15008D-1AD3-4549-9602-DC6CD9F93784*
G04*
G04*
G04 #@! TF.FilePolarity,Positive*
G04*
G01*
G75*
%ADD14C,0.2540*%
%ADD22R,0.8500X0.3000*%
%ADD23R,0.3000X0.8500*%
%ADD24R,3.7000X3.7000*%
G04:AMPARAMS|DCode=25|XSize=0.55mm|YSize=0.5mm|CornerRadius=0.0625mm|HoleSize=0mm|Usage=FLASHONLY|Rotation=90.000|XOffset=0mm|YOffset=0mm|HoleType=Round|Shape=RoundedRectangle|*
%AMROUNDEDRECTD25*
21,1,0.5500,0.3750,0,0,90.0*
21,1,0.4250,0.5000,0,0,90.0*
1,1,0.1250,0.1875,0.2125*
1,1,0.1250,0.1875,-0.2125*
1,1,0.1250,-0.1875,-0.2125*
1,1,0.1250,-0.1875,0.2125*
%
%ADD25ROUNDEDRECTD25*%
%ADD26C,0.1600*%
%ADD27C,1.5500*%
%ADD28R,1.5500X1.5500*%
%ADD29C,0.2500*%
D14*
X89154Y369321D02*
Y369571D01*
D22*
X157372Y551408D02*
D03*
Y546408D02*
D03*
Y541408D02*
D03*
Y536408D02*
D03*
Y531408D02*
D03*
Y526408D02*
D03*
Y521408D02*
D03*
Y516408D02*
D03*
X207372D02*
D03*
Y521408D02*
D03*
Y526408D02*
D03*
Y531408D02*
D03*
Y536408D02*
D03*
Y541408D02*
D03*
Y546408D02*
D03*
Y551408D02*
D03*
D23*
X164872Y508908D02*
D03*
X169872D02*
D03*
X174872D02*
D03*
X179872D02*
D03*
X184872D02*
D03*
X189872D02*
D03*
X194872D02*
D03*
X199872D02*
D03*
Y558908D02*
D03*
X194872D02*
D03*
X189872D02*
D03*
X184872D02*
D03*
X179872D02*
D03*
X174872D02*
D03*
X169872D02*
D03*
X164872D02*
D03*
D24*
X182372Y533908D02*
D03*
D25*
X84654Y419607D02*
D03*
X93654D02*
D03*
X84654Y457962D02*
D03*
X93654D02*
D03*
X80153Y390659D02*
D03*
X89154D02*
D03*
X80154Y371322D02*
D03*
X89154D02*
D03*
D26*
X78000Y359918D02*
X164872Y446790D01*
X84654Y457962D02*
Y514172D01*
Y457712D02*
Y457962D01*
X23368Y508762D02*
Y534162D01*
X48768Y508762D02*
Y534162D01*
X108513Y594106D02*
X188976D01*
X69859Y555451D02*
X108513Y594106D01*
X69859Y504453D02*
Y555451D01*
X188976Y594106D02*
X222250Y560832D01*
X72459Y553908D02*
X109863Y591312D01*
X188093D02*
X218440Y560965D01*
X109863Y591312D02*
X188093D01*
X48768Y483362D02*
X69859Y504453D01*
X72459Y481653D02*
Y553908D01*
X218440Y529180D02*
Y560965D01*
X212368Y523108D02*
X218440Y529180D01*
X212368Y518108D02*
X222250Y527990D01*
Y560832D01*
X211822Y518108D02*
X212368D01*
X210122Y516408D02*
X211822Y518108D01*
X207372Y516408D02*
X210122D01*
X211822Y523108D02*
X212368D01*
X210122Y521408D02*
X211822Y523108D01*
X207372Y521408D02*
X210122D01*
X48768Y457962D02*
X72459Y481653D01*
X80654Y518668D02*
X139328Y577342D01*
X84654Y514172D02*
X142744Y572262D01*
X167612D01*
X139328Y577342D02*
X172532D01*
X87404Y553908D02*
X114648Y581152D01*
X111554Y584962D02*
X174872D01*
X78000Y551408D02*
X111554Y584962D01*
X114648Y581152D02*
X174244D01*
X101854Y372592D02*
X184872Y455610D01*
Y508908D01*
X150872Y536408D02*
X157372D01*
X124456Y509993D02*
X150872Y536408D01*
X124456Y488188D02*
Y509993D01*
X89154Y371322D02*
Y390659D01*
X164872Y446790D02*
Y508908D01*
X174244Y581152D02*
X184872Y570524D01*
Y558908D02*
Y570524D01*
X174872Y584962D02*
X189172Y570662D01*
Y559608D02*
Y570662D01*
X167612Y572262D02*
X174872Y565002D01*
X172532Y577342D02*
X179872Y570001D01*
X174872Y558908D02*
Y565002D01*
X179872Y558908D02*
Y570001D01*
X189172Y559608D02*
X189872Y558908D01*
X80518Y433114D02*
Y436118D01*
X84654Y419607D02*
Y428978D01*
X80518Y433114D02*
X84654Y428978D01*
X82954Y456012D02*
X84654Y457712D01*
X82704Y456012D02*
X82954D01*
X59254Y432562D02*
X82704Y456012D01*
X48768Y432562D02*
X59254D01*
X93654Y457962D02*
X93654Y457962D01*
Y432307D02*
Y457962D01*
X107442Y507238D02*
X151612Y551408D01*
X107442Y418338D02*
Y507238D01*
X101854Y412750D02*
X107442Y418338D01*
X151612Y551408D02*
X157372D01*
X80808Y402558D02*
X92708Y414457D01*
X68909Y390659D02*
X80808Y402558D01*
X91662D01*
X101854Y412750D01*
Y424108D01*
X93654Y432307D02*
X101854Y424108D01*
X68909Y390659D02*
X80153D01*
X57665D02*
X68909D01*
X92708Y418661D02*
X93654Y419607D01*
X92708Y414457D02*
Y418661D01*
X48768Y381762D02*
X57665Y390659D01*
X48768Y381762D02*
X59208Y371322D01*
X80154D01*
X6779Y359918D02*
X78000D01*
X72459Y407162D02*
X84654Y419357D01*
Y419607D01*
X48768Y407162D02*
X72459D01*
X89154Y390659D02*
X89154Y390659D01*
X5842Y360855D02*
X6779Y359918D01*
X5842Y360855D02*
Y465836D01*
X23368Y483362D01*
Y610362D02*
X48768D01*
Y559562D02*
Y584962D01*
Y534162D02*
Y559562D01*
X23368D02*
Y584962D01*
X48768D02*
Y610362D01*
X23368Y584962D02*
Y610362D01*
Y534162D02*
Y559562D01*
Y483362D02*
Y508762D01*
X80153Y390405D02*
Y390655D01*
X80123Y371353D02*
X80154Y371322D01*
D27*
X48768Y534162D02*
D03*
X23368D02*
D03*
Y559562D02*
D03*
X48768D02*
D03*
X23368Y584962D02*
D03*
X48768D02*
D03*
X23368Y610362D02*
D03*
X48768D02*
D03*
X23368Y381762D02*
D03*
Y407162D02*
D03*
X48768D02*
D03*
X23368Y432562D02*
D03*
X48768D02*
D03*
X23368Y457962D02*
D03*
X48768D02*
D03*
Y508762D02*
D03*
Y483362D02*
D03*
X23368D02*
D03*
Y508762D02*
D03*
D28*
X48768Y381762D02*
D03*
D29*
X80654Y518668D02*
D03*
X87404Y553908D02*
D03*
X101854Y372592D02*
D03*
X124456Y488188D02*
D03*
X78000Y551408D02*
D03*
X80518Y436118D02*
D03*
M02*
