G04*
G04 #@! TF.GenerationSoftware,Altium Limited,Altium Designer,24.10.1 (45)*
G04*
G04 Layer_Physical_Order=2*
G04 Layer_Color=16711680*
%FSLAX44Y44*%
%MOMM*%
G71*
G04*
G04 #@! TF.SameCoordinates,6C15008D-1AD3-4549-9602-DC6CD9F93784*
G04*
G04*
G04 #@! TF.FilePolarity,Positive*
G04*
G01*
G75*
%ADD26C,0.1600*%
%ADD27C,1.5500*%
%ADD28R,1.5500X1.5500*%
%ADD29C,0.2500*%
D26*
X80518Y518532D02*
X80654Y518668D01*
X80518Y436118D02*
Y518532D01*
X68818Y464506D02*
Y535322D01*
X87404Y553908D01*
X64516Y537924D02*
X78000Y551408D01*
X64516Y485604D02*
Y537924D01*
X48926Y444614D02*
X68818Y464506D01*
X73762Y423012D02*
X124460Y473710D01*
Y488184D01*
X124456Y488188D02*
X124460Y488184D01*
X26670Y353060D02*
X82322D01*
X101854Y372592D01*
X51112Y423012D02*
X73762D01*
X35420Y405708D02*
Y407320D01*
X23368Y393656D02*
X35420Y405708D01*
Y407320D02*
X51112Y423012D01*
X23368Y381762D02*
Y393656D01*
X13818Y365912D02*
X26670Y353060D01*
X13818Y365912D02*
Y397612D01*
X23368Y407162D01*
X35420Y444614D02*
X48926D01*
X23368Y432562D02*
X35420Y444614D01*
X35262Y457962D02*
X47314Y470014D01*
X23368Y457962D02*
X35262D01*
X48926Y470014D02*
X64516Y485604D01*
X47314Y470014D02*
X48926D01*
D27*
X48768Y534162D02*
D03*
X23368D02*
D03*
Y559562D02*
D03*
X48768D02*
D03*
X23368Y584962D02*
D03*
X48768D02*
D03*
X23368Y610362D02*
D03*
X48768D02*
D03*
X23368Y381762D02*
D03*
Y407162D02*
D03*
X48768D02*
D03*
X23368Y432562D02*
D03*
X48768D02*
D03*
X23368Y457962D02*
D03*
X48768D02*
D03*
Y508762D02*
D03*
Y483362D02*
D03*
X23368D02*
D03*
Y508762D02*
D03*
D28*
X48768Y381762D02*
D03*
D29*
X80654Y518668D02*
D03*
X87404Y553908D02*
D03*
X101854Y372592D02*
D03*
X124456Y488188D02*
D03*
X78000Y551408D02*
D03*
X80518Y436118D02*
D03*
M02*
