M48
;Layer_Color=9474304
;FILE_FORMAT=4:4
METRIC,TZ
;TYPE=PLATED
T01F00S00C0.1500
T02F00S00C1.0200
%
T01
X101854Y372592
X80518Y436118
X80654Y518668
X78000Y551408
X87404Y553908
X124456Y488188
T02
X23368Y381762
X48768
Y407162
X23368
Y432562
X48768
Y457962
X23368
Y483362
X48768
Y508762
Y534162
X23368
Y559562
X48768
Y584962
X23368
Y610362
X48768
X23368Y508762
M30
